HIERARCHY
ROOT mixamorig:Hips
{
  OFFSET 0.000000 0.000000 0.000000
  CHANNELS 6 Xposition Yposition Zposition Xrotation Yrotation Zrotation
  JOINT mixamorig:Spine
  {
    OFFSET -2.467216 22.898095 2.652771
    CHANNELS 3 Xrotation Yrotation Zrotation
    JOINT mixamorig:Spine2
    {
      OFFSET -2.467216 22.898095 2.652771
      CHANNELS 3 Xrotation Yrotation Zrotation
      JOINT mixamorig:Neck
      {
        OFFSET 0.000000 3.505379 0.000000
        CHANNELS 3 Xrotation Yrotation Zrotation
        JOINT mixamorig:Head
        {
          OFFSET 0.000000 10.000000 0.000000
          CHANNELS 3 Xrotation Yrotation Zrotation
          End Site
          {
            OFFSET 0.000000 3.000000 0.000000
          }
        }
      }
      JOINT mixamorig:LeftShoulder
      {
        OFFSET 13.902884 1.363860 -6.934310
        CHANNELS 3 Xrotation Yrotation Zrotation
        JOINT mixamorig:LeftArm
        {
          OFFSET 10.000000 -2.000000 0.000000
          CHANNELS 3 Xrotation Yrotation Zrotation
          JOINT mixamorig:LeftForeArm
          {
            OFFSET 24.979475 0.000000 0.000000
            CHANNELS 3 Xrotation Yrotation Zrotation
            JOINT mixamorig:LeftHand
            {
              OFFSET 25.854364 0.000000 0.000000
              CHANNELS 3 Xrotation Yrotation Zrotation
              End Site
              {
                OFFSET 7.756309 0.000000 0.000000
              }
            }
          }
        }
      }
      JOINT mixamorig:RightShoulder
      {
        OFFSET -13.902884 1.363860 6.934310
        CHANNELS 3 Xrotation Yrotation Zrotation
        JOINT mixamorig:RightArm
        {
          OFFSET -10.000000 -2.000000 0.000000
          CHANNELS 3 Xrotation Yrotation Zrotation
          JOINT mixamorig:RightForeArm
          {
            OFFSET -24.979475 0.000000 0.000000
            CHANNELS 3 Xrotation Yrotation Zrotation
            JOINT mixamorig:RightHand
            {
              OFFSET -25.854364 0.000000 0.000000
              CHANNELS 3 Xrotation Yrotation Zrotation
              End Site
              {
                OFFSET -7.756309 0.000000 0.000000
              }
            }
          }
        }
      }
    }
  }
  JOINT mixamorig:LeftUpLeg
  {
    OFFSET 9.861849 0.444407 -0.976718
    CHANNELS 3 Xrotation Yrotation Zrotation
    JOINT mixamorig:LeftLeg
    {
      OFFSET 11.180432 -36.270921 -9.220837
      CHANNELS 3 Xrotation Yrotation Zrotation
      JOINT mixamorig:LeftFoot
      {
        OFFSET 17.156359 -38.964623 1.258087
        CHANNELS 3 Xrotation Yrotation Zrotation
        JOINT mixamorig:LeftToeBase
        {
          OFFSET 0.360386 -5.409297 -8.545403
          CHANNELS 3 Xrotation Yrotation Zrotation
          End Site
          {
            OFFSET 0.108116 -1.622789 -2.563621
          }
        }
      }
    }
  }
  JOINT mixamorig:RightUpLeg
  {
    OFFSET -9.861849 -0.444407 0.976718
    CHANNELS 3 Xrotation Yrotation Zrotation
    JOINT mixamorig:RightLeg
    {
      OFFSET -13.248413 -36.677920 2.194377
      CHANNELS 3 Xrotation Yrotation Zrotation
      JOINT mixamorig:RightFoot
      {
        OFFSET -4.072217 -37.392453 19.984664
        CHANNELS 3 Xrotation Yrotation Zrotation
        JOINT mixamorig:RightToeBase
        {
          OFFSET -8.423535 -3.852637 -4.076215
          CHANNELS 3 Xrotation Yrotation Zrotation
          End Site
          {
            OFFSET -2.527060 -1.155791 -1.222865
          }
        }
      }
    }
  }
}
MOTION
Frames: 18
Frame Time: 0.041667
9.521237 0.264865 0.000000 -6.679769 -0.001144 -12.465296 -0.004443 0.008990 -0.081753 17.718204 -58.089128 15.878744 -5.445867 -1.113380 7.241244 -5.636626 -0.472287 7.329614 0.000000 0.000000 0.000000 -28.023826 28.718456 -84.355823 -15.455886 1.306397 -26.713185 0.000000 0.000000 0.000000 0.000000 0.000000 0.000000 -101.512914 -78.118134 110.029425 3.935024 -17.817595 -15.166682 0.000000 0.000000 0.000000 13.758031 -5.363354 25.634835 -8.536307 -6.744369 -21.875179 12.469807 -49.260389 26.484074 0.000000 0.000000 0.000000 9.562231 -4.300758 23.896489 -28.072052 -22.935886 -29.977346 -25.817785 -25.247558 60.905879 0.000000 0.000000 0.000000
9.446498 0.274200 0.000000 -6.759028 -0.000107 -12.776378 -0.008181 0.008804 -0.083648 22.417431 -68.466254 18.991276 -7.260500 1.432276 3.460784 -7.151785 1.876296 3.295433 0.000000 0.000000 0.000000 -15.242780 38.030682 -49.256812 -7.655827 -3.393897 85.073643 0.000000 0.000000 0.000000 0.000000 0.000000 0.000000 -58.304706 -77.900380 69.367274 -20.817368 -14.454572 -16.055621 0.000000 0.000000 0.000000 16.892951 -6.296090 28.701052 -10.982391 -8.620011 -22.973699 18.336462 -50.387184 24.316364 0.000000 0.000000 0.000000 11.956938 -5.701381 22.134803 -33.401086 -21.537431 -26.603197 -24.525696 -29.898011 57.846460 0.000000 0.000000 0.000000
9.240567 0.273550 0.000000 -6.608708 0.060443 -13.234055 -0.000304 0.009227 -0.079925 20.746143 -65.988535 18.065764 -8.465782 1.737862 3.029167 -8.332973 2.195194 2.803910 0.000000 0.000000 0.000000 -36.950098 64.740066 -53.888170 11.769001 2.543403 -16.161534 0.000000 0.000000 0.000000 0.000000 0.000000 0.000000 -68.475053 -69.281191 89.047205 -93.922245 -12.334475 150.132703 0.000000 0.000000 0.000000 17.350077 -6.309473 28.774788 -11.240114 -8.707130 -22.446835 3.813581 -53.842114 34.179042 0.000000 0.000000 0.000000 11.187942 -5.300769 23.140686 -32.399936 -21.039284 -26.380972 -22.852858 -6.573476 55.708322 0.000000 0.000000 0.000000
8.815890 0.269082 0.000000 -6.414242 0.117385 -13.456821 0.010156 0.009819 -0.075243 17.950556 -61.179225 16.370117 -8.713190 -0.381167 2.210070 -8.688032 -0.045356 2.273251 0.000000 0.000000 0.000000 -66.074512 53.716755 -100.475077 20.765377 -0.757414 -130.173938 0.000000 0.000000 0.000000 0.000000 0.000000 0.000000 -71.352465 -58.585916 103.715263 -19.370014 -11.889887 118.845672 0.000000 0.000000 0.000000 17.843012 -6.322170 28.848610 -10.086292 -7.958236 -22.808521 -0.564850 -55.675075 38.167476 0.000000 0.000000 0.000000 9.446563 -4.248122 22.977020 -29.464150 -20.970646 -27.133572 -26.744051 -7.163673 64.553997 0.000000 0.000000 0.000000
8.215617 0.256221 0.000000 -6.302699 0.104043 -12.834797 0.014535 0.010005 -0.072753 15.805263 -55.561949 14.883557 -8.101218 -3.756670 2.357543 -8.210071 -3.462724 2.905244 0.000000 0.000000 0.000000 -53.995067 42.938572 -92.901615 25.967389 17.106666 -141.982168 0.000000 0.000000 0.000000 0.000000 0.000000 0.000000 -53.765900 -49.056583 95.259681 -8.818002 -8.740806 110.075826 0.000000 0.000000 0.000000 16.759552 -5.878027 27.568375 -9.541981 -7.460296 -22.103447 0.329550 -49.352094 33.411190 0.000000 0.000000 0.000000 8.217894 -3.470556 20.307846 -25.649320 -19.280291 -26.214511 -23.440587 -23.326959 57.876658 0.000000 0.000000 0.000000
7.383938 0.232786 0.000000 -6.320886 0.021834 -11.462178 0.014863 0.010164 -0.073832 13.189273 -45.161738 12.795049 -8.218607 -5.936779 4.474546 -8.528609 -5.355533 5.355420 0.000000 0.000000 0.000000 -41.960434 33.459780 -83.725894 36.375425 33.192773 -129.624302 0.000000 0.000000 0.000000 0.000000 0.000000 0.000000 -39.238567 -41.622110 85.630895 33.700749 -9.616666 17.462129 0.000000 0.000000 0.000000 14.875515 -4.637694 23.924884 -9.208306 -6.691816 -18.821555 9.210685 -41.089259 23.129176 0.000000 0.000000 0.000000 5.805007 -2.133796 15.551065 -18.942060 -15.452707 -23.061191 -14.867711 -34.577980 43.468968 0.000000 0.000000 0.000000
6.199158 0.207781 0.000000 -7.141624 -0.270673 -9.104203 -0.008189 0.010233 -0.096046 9.963610 -27.137756 9.552440 -8.963026 -6.767022 7.076221 -9.526891 -5.746882 8.207106 0.000000 0.000000 0.000000 -29.426765 25.741671 -73.300634 54.351093 45.337779 -26.729160 0.000000 0.000000 0.000000 0.000000 0.000000 0.000000 -30.971645 -35.657829 81.459445 83.749208 -21.609582 -137.310690 0.000000 0.000000 0.000000 12.200151 -2.840120 18.206134 -9.658620 -6.230734 -13.615194 11.102596 -31.683048 17.027185 0.000000 0.000000 0.000000 2.428286 -0.458142 11.166013 -9.782911 -10.950624 -18.462758 -4.942863 -34.080518 26.862755 0.000000 0.000000 0.000000
4.728078 0.191399 0.000000 -8.623381 -0.629695 -7.343417 -0.034917 0.012174 -0.137916 7.546248 -8.606159 7.135883 -10.884945 -7.791426 6.706825 -11.421300 -6.648029 8.263978 0.000000 0.000000 0.000000 -17.267206 20.393273 -62.421703 77.883314 51.435217 151.881290 0.000000 0.000000 0.000000 0.000000 0.000000 0.000000 -32.345835 -34.394651 86.309641 14.747758 -27.596762 -23.925549 0.000000 0.000000 0.000000 9.368642 -1.780277 13.831812 -8.498843 -4.894234 -8.696324 13.217145 -24.143923 12.571209 0.000000 0.000000 0.000000 2.972148 -0.829550 7.629796 -6.189418 -5.317984 -9.931729 5.317820 -24.449162 7.765658 0.000000 0.000000 0.000000
3.350600 0.186030 0.000000 -9.347759 -0.786102 -6.449844 -0.038245 0.014526 -0.161401 6.612973 -0.044342 6.416145 -10.367142 -7.567471 8.130624 -11.037019 -6.219972 9.607270 0.000000 0.000000 0.000000 -9.234181 18.121559 -53.728130 94.183078 53.410082 129.831201 0.000000 0.000000 0.000000 0.000000 0.000000 0.000000 -31.538060 -32.392885 88.424591 -159.687861 -29.180627 174.616948 0.000000 0.000000 0.000000 6.755859 -1.419066 11.197369 -7.350124 -3.705103 -4.152254 16.050856 -15.636979 7.795764 0.000000 0.000000 0.000000 4.410799 -1.471598 7.018638 -4.887164 -2.809349 -5.695565 11.016265 -24.407049 -1.172774 0.000000 0.000000 0.000000
2.322713 0.186107 0.000000 -9.391607 -0.826706 -5.457143 -0.028539 0.015779 -0.163079 6.145141 4.316894 5.653640 -8.392954 -5.748374 9.357293 -9.077171 -4.409076 10.282807 0.000000 0.000000 0.000000 -8.815607 18.537705 -50.571533 94.054158 57.057718 126.226855 0.000000 0.000000 0.000000 0.000000 0.000000 0.000000 -30.635276 -30.561616 90.139021 -146.197505 -29.642573 170.872492 0.000000 0.000000 0.000000 5.928516 -1.057446 9.450541 -8.052212 -3.729213 -1.598505 17.236690 -10.870523 5.564215 0.000000 0.000000 0.000000 4.997642 -1.733132 6.070971 -4.133935 -1.578085 -3.480150 10.101969 -23.050822 -0.592113 0.000000 0.000000 0.000000
1.611712 0.186418 0.000000 -9.202895 -0.810272 -5.081232 -0.023323 0.015610 -0.156694 5.930058 6.310737 5.382964 -7.091481 -4.294444 10.278420 -7.671798 -3.013483 10.880633 0.000000 0.000000 0.000000 -8.813964 18.579154 -50.471482 103.676147 58.860389 131.643970 0.000000 0.000000 0.000000 0.000000 0.000000 0.000000 -30.019465 -29.776454 90.494050 -161.617397 -31.240054 174.765461 0.000000 0.000000 0.000000 5.980120 -0.889542 8.935008 -10.402244 -4.642168 -0.285687 19.114095 -5.859418 3.176523 0.000000 0.000000 0.000000 5.590558 -1.985881 4.362698 -2.456929 -0.316472 -0.966523 8.275020 -21.853681 1.492240 0.000000 0.000000 0.000000
1.129556 0.185082 0.000000 -8.925592 -0.768553 -5.067107 -0.020772 0.014817 -0.147432 5.807549 7.438004 5.404958 -6.491955 -2.809199 10.708572 -6.878425 -1.578604 11.090719 0.000000 0.000000 0.000000 -8.712571 17.946462 -51.510199 128.978163 60.429764 148.406584 0.000000 0.000000 0.000000 0.000000 0.000000 0.000000 -29.139250 -28.374124 91.657287 -145.152126 -32.254071 150.399606 0.000000 0.000000 0.000000 8.102043 -0.547143 9.324291 -13.470210 -6.026315 -0.198043 16.647407 -3.215700 2.055072 0.000000 0.000000 0.000000 6.949317 -2.519133 2.569055 -0.242473 0.872141 1.535507 6.842324 -19.482791 2.312793 0.000000 0.000000 0.000000
0.909766 0.183392 0.000000 -8.694168 -0.722272 -5.360152 -0.020993 0.013910 -0.139799 5.661814 8.772110 5.742454 -6.333454 -2.383955 10.619880 -6.646961 -1.195641 10.942434 0.000000 0.000000 0.000000 -9.088991 18.163642 -52.826419 147.854838 59.796669 161.267962 0.000000 0.000000 0.000000 0.000000 0.000000 0.000000 -25.267519 -24.335570 92.224736 -28.872402 -40.298719 27.567042 0.000000 0.000000 0.000000 13.327512 0.100177 10.691951 -20.369754 -9.440945 -1.131144 14.168898 -1.057856 1.030878 0.000000 0.000000 0.000000 9.370763 -3.432217 1.897162 -2.699728 2.072862 3.029554 6.518455 -18.460818 2.201914 0.000000 0.000000 0.000000
0.994547 0.181311 0.000000 -8.721770 -0.697608 -6.108119 -0.027094 0.013338 -0.140606 5.542053 9.861942 6.545142 -6.628901 -1.605783 10.661022 -6.804895 -0.366616 10.918725 0.000000 0.000000 0.000000 -10.140989 19.606842 -54.306353 139.465437 56.472771 157.830162 0.000000 0.000000 0.000000 0.000000 0.000000 0.000000 -24.771594 -24.296129 91.147335 174.161318 -44.963376 -177.550903 0.000000 0.000000 0.000000 18.270609 0.102053 13.286693 -23.348979 -11.890223 -4.932716 8.811462 -1.862913 1.510105 0.000000 0.000000 0.000000 11.910972 -4.396457 1.857066 -6.946985 3.537147 4.450425 7.674713 -18.207155 0.189534 0.000000 0.000000 0.000000
1.231279 0.179407 0.000000 -8.727184 -0.661535 -7.031719 -0.034580 0.012532 -0.140688 5.581846 9.486601 7.448366 -6.853254 -2.485979 10.081092 -7.130034 -1.279968 10.450322 0.000000 0.000000 0.000000 -11.282130 20.648750 -56.897083 130.199815 49.644833 155.604533 0.000000 0.000000 0.000000 0.000000 0.000000 0.000000 -24.176151 -25.139602 87.512956 170.205562 -48.844896 -175.249805 0.000000 0.000000 0.000000 21.912323 -0.175006 15.543656 -23.131655 -13.206866 -10.000814 5.813826 -9.941665 5.856943 0.000000 0.000000 0.000000 11.733652 -4.381383 3.228300 -8.482593 3.126000 3.401619 9.147056 -18.523050 -1.961316 0.000000 0.000000 0.000000
1.642714 0.178628 0.000000 -8.377517 -0.564814 -7.873946 -0.034745 0.011256 -0.129812 6.198103 3.865754 8.078126 -7.214579 -5.506238 8.171880 -7.698399 -4.508383 8.927233 0.000000 0.000000 0.000000 -13.154372 21.613113 -61.522942 112.312727 42.682117 134.716763 0.000000 0.000000 0.000000 0.000000 0.000000 0.000000 -20.857397 -24.690500 79.793207 154.614706 -54.096524 -165.718049 0.000000 0.000000 0.000000 22.638937 -0.743708 17.073218 -21.131619 -13.057635 -13.427325 7.223942 -15.600505 8.906856 0.000000 0.000000 0.000000 9.416880 -3.569677 6.819423 -9.096132 0.301896 -0.990302 7.726195 -20.546443 1.343136 0.000000 0.000000 0.000000
2.322540 0.182792 0.000000 -7.684070 -0.375128 -9.118672 -0.024094 0.010088 -0.109696 7.733805 -9.791655 9.113302 -7.927322 -11.740566 7.181856 -8.757084 -10.840494 8.782528 0.000000 0.000000 0.000000 -18.756167 25.663645 -70.166780 24.991575 34.641113 23.272781 0.000000 0.000000 0.000000 0.000000 0.000000 0.000000 -17.231714 -24.988280 68.295939 124.727232 -58.211031 -146.096117 0.000000 0.000000 0.000000 20.986930 -1.586673 18.409348 -19.862139 -12.585407 -14.637640 9.395844 -18.927853 10.560416 0.000000 0.000000 0.000000 7.870973 -3.079336 13.657970 -12.199945 -5.929402 -10.386272 3.319894 -26.398940 11.026218 0.000000 0.000000 0.000000
3.285141 0.194228 0.000000 -6.726960 -0.067697 -11.413184 -0.002563 0.009373 -0.083312 9.809389 -27.091872 11.460901 -8.349986 -13.974574 6.274193 -9.081135 -13.197952 8.235932 0.000000 0.000000 0.000000 -27.419773 28.842351 -86.588745 -109.925300 22.599707 -163.898869 0.000000 0.000000 0.000000 0.000000 0.000000 0.000000 -17.671181 -28.711385 59.079877 88.373009 -56.458883 -108.085245 0.000000 0.000000 0.000000 18.181562 -2.803246 20.477188 -17.128220 -11.014960 -15.532619 10.210043 -26.029622 14.577085 0.000000 0.000000 0.000000 7.856178 -3.308844 21.368093 -17.119367 -14.478773 -22.098018 -3.168102 -35.310568 25.574787 0.000000 0.000000 0.000000
